<svg width="140" height="104" viewBox="0 0 140 104" fill="none" xmlns="http://www.w3.org/2000/svg">
<path d="M94.9686 46.4519C96.6771 47.7211 96.6771 49.7789 94.9686 51.0481L68.7186 70.5481C67.8981 71.1576 66.7853 71.5 65.625 71.5C64.4647 71.5 63.3519 71.1576 62.5314 70.5481L49.4064 60.7981C47.6979 59.5289 47.6979 57.4711 49.4064 56.2019C51.115 54.9327 53.8851 54.9327 55.5936 56.2019L65.625 63.6538L88.7814 46.4519C90.49 45.1827 93.26 45.1827 94.9686 46.4519Z" fill="#FFFDFD"/>
<path d="M30.625 0C33.0412 0 35 1.45507 35 3.25V6.5H105V3.25C105 1.45507 106.959 0 109.375 0C111.791 0 113.75 1.45507 113.75 3.25V6.5H122.5C132.165 6.5 140 12.3203 140 19.5V91C140 98.1797 132.165 104 122.5 104H17.5C7.83502 104 0 98.1797 0 91V19.5C0 12.3203 7.83502 6.5 17.5 6.5H26.25V3.25C26.25 1.45507 28.2088 0 30.625 0ZM8.75 26V91C8.75 94.5898 12.6675 97.5 17.5 97.5H122.5C127.332 97.5 131.25 94.5898 131.25 91V26H8.75Z" fill="#FFFDFD"/>
</svg>
