<svg width="90" height="90" viewBox="0 0 90 90" fill="none" xmlns="http://www.w3.org/2000/svg">
<path d="M0 14.0625C0 12.5092 1.2592 11.25 2.8125 11.25H11.25C12.5406 11.25 13.6655 12.1283 13.9785 13.3804L16.2584 22.5H81.5625C82.4286 22.5 83.2463 22.899 83.7793 23.5817C84.3123 24.2643 84.5011 25.1544 84.291 25.9946L75.8535 59.7446C75.5405 60.9967 74.4156 61.875 73.125 61.875H22.5C21.2094 61.875 20.0845 60.9967 19.7715 59.7446L9.05407 16.875H2.8125C1.2592 16.875 0 15.6158 0 14.0625ZM17.6647 28.125L20.4772 39.375H28.125V28.125H17.6647ZM33.75 28.125V39.375H45V28.125H33.75ZM50.625 28.125V39.375H61.875V28.125H50.625ZM67.5 28.125V39.375H75.1478L77.9603 28.125H67.5ZM73.7416 45H67.5V56.25H70.9291L73.7416 45ZM61.875 45H50.625V56.25H61.875V45ZM45 45H33.75V56.25H45V45ZM28.125 45H21.8834L24.6959 56.25H28.125V45ZM28.125 73.125C25.0184 73.125 22.5 75.6434 22.5 78.75C22.5 81.8566 25.0184 84.375 28.125 84.375C31.2316 84.375 33.75 81.8566 33.75 78.75C33.75 75.6434 31.2316 73.125 28.125 73.125ZM16.875 78.75C16.875 72.5368 21.9118 67.5 28.125 67.5C34.3382 67.5 39.375 72.5368 39.375 78.75C39.375 84.9632 34.3382 90 28.125 90C21.9118 90 16.875 84.9632 16.875 78.75ZM67.5 73.125C64.3934 73.125 61.875 75.6434 61.875 78.75C61.875 81.8566 64.3934 84.375 67.5 84.375C70.6066 84.375 73.125 81.8566 73.125 78.75C73.125 75.6434 70.6066 73.125 67.5 73.125ZM56.25 78.75C56.25 72.5368 61.2868 67.5 67.5 67.5C73.7132 67.5 78.75 72.5368 78.75 78.75C78.75 84.9632 73.7132 90 67.5 90C61.2868 90 56.25 84.9632 56.25 78.75Z" fill="white"/>
</svg>
