<svg width="73" height="77" viewBox="0 0 73 77" fill="none" xmlns="http://www.w3.org/2000/svg">
<path d="M18.25 51.8849C18.9244 59.9077 25.1528 65.5974 34.6343 66.3341V72.1875H39.3948V66.3341C49.749 65.4746 56.1758 59.4165 56.1758 50.4523C56.1758 42.7979 51.8516 38.3772 42.6875 35.8803L39.3948 34.9798V16.6829C44.5124 17.2151 47.9638 20.1213 48.8366 24.4601H55.541C54.7873 16.7648 48.5192 11.2389 39.3948 10.6249V4.8125H34.6343V10.7477C25.7876 11.8529 19.7178 17.8291 19.7178 25.9337C19.7178 32.9332 24.1214 37.886 31.8573 39.9736L34.6343 40.7513V60.1533C29.3976 59.3347 25.7876 56.3057 24.9148 51.8849H18.25ZM33.7218 33.4244C28.9613 32.1555 26.4223 29.4539 26.4223 25.6472C26.4223 21.1037 29.6357 17.7472 34.6343 16.8467V33.67L33.7218 33.4244ZM40.9817 42.4295C46.853 43.985 49.4317 46.5637 49.4317 50.9435C49.4317 56.2238 45.6629 59.744 39.3948 60.2761V42.0202L40.9817 42.4295Z" fill="#F8F8F8"/>
</svg>
