<svg width="270" height="228" viewBox="0 0 270 228" fill="none" xmlns="http://www.w3.org/2000/svg">
<path d="M0 49.875C0 38.0699 11.3328 28.5 25.3125 28.5H177.188C191.167 28.5 202.5 38.0699 202.5 49.875V71.25H219.702C227.391 71.25 234.664 74.2017 239.468 79.2721L264.453 105.646C268.044 109.436 270 114.145 270 118.999V149.625C270 161.43 258.667 171 244.688 171H236.25C236.25 186.74 221.14 199.5 202.5 199.5C183.86 199.5 168.75 186.74 168.75 171H84.375C84.375 186.74 69.2646 199.5 50.625 199.5C31.9854 199.5 16.875 186.74 16.875 171C16.875 170.595 16.885 170.193 16.9047 169.793C7.05788 166.865 0 158.941 0 149.625V49.875ZM21.8355 156.119C27.7699 147.949 38.4438 142.5 50.625 142.5C63.1173 142.5 74.0243 148.231 79.8599 156.75H173.265C176.229 152.423 180.501 148.816 185.625 146.313V49.875C185.625 45.94 181.847 42.75 177.188 42.75H25.3125C20.6526 42.75 16.875 45.94 16.875 49.875V149.625C16.875 152.513 18.9101 155 21.8355 156.119ZM202.5 142.5C214.992 142.5 225.899 148.231 231.735 156.75H244.688C249.347 156.75 253.125 153.56 253.125 149.625V118.999C253.125 117.381 252.473 115.811 251.276 114.548L226.291 88.174C224.689 86.4839 222.265 85.5 219.702 85.5H202.5V142.5ZM50.625 156.75C41.3052 156.75 33.75 163.13 33.75 171C33.75 178.87 41.3052 185.25 50.625 185.25C59.9448 185.25 67.5 178.87 67.5 171C67.5 163.13 59.9448 156.75 50.625 156.75ZM202.5 156.75C193.18 156.75 185.625 163.13 185.625 171C185.625 178.87 193.18 185.25 202.5 185.25C211.82 185.25 219.375 178.87 219.375 171C219.375 163.13 211.82 156.75 202.5 156.75Z" fill="#FFFEFE"/>
</svg>
